<svg width="20" height="20" viewBox="0 0 20 20" fill="none" xmlns="http://www.w3.org/2000/svg">
<path fill-rule="evenodd" clip-rule="evenodd" d="M7.25622 18.7C6.99311 18.5889 6.83875 18.3136 6.88122 18.0312L8.01872 10.625H4.99997C4.806 10.6302 4.62061 10.545 4.49821 10.3945C4.37581 10.2439 4.33027 10.045 4.37497 9.85623L6.24997 1.73123C6.31798 1.443 6.57893 1.24207 6.87497 1.24998H13.125C13.3141 1.24934 13.4933 1.33436 13.6125 1.48123C13.7333 1.62981 13.7794 1.8256 13.7375 2.01248L12.6562 6.87498H15.625C15.864 6.8745 16.0823 7.01036 16.1875 7.22498C16.2786 7.43051 16.2524 7.66918 16.1187 7.84998L7.99372 18.475C7.88235 18.6401 7.69897 18.7422 7.49997 18.75C7.41634 18.7484 7.33371 18.7315 7.25622 18.7ZM11.0937 8.12498L12.3437 2.49998H7.37497L5.78747 9.37498H9.48122L8.48747 15.8L14.375 8.12498H11.0937Z" fill="#001614"/>
</svg>
