<svg width="78" height="24" viewBox="0 0 78 24" fill="none" xmlns="http://www.w3.org/2000/svg">
<path d="M0.93335 2.78943H10.3734C13.5093 2.78943 15.0773 4.1121 15.0773 6.75743V19.3654C15.0773 22.0108 13.5093 23.3334 10.3734 23.3334H0.93335V2.78943ZM9.47735 18.9494V7.17343C9.47735 6.7041 9.21068 6.46943 8.67735 6.46943H6.53335V19.6534H8.67735C9.21068 19.6534 9.47735 19.4188 9.47735 18.9494Z" fill="#FAFAFA"/>
<path d="M16.2708 2.78943H21.8708V23.3334H16.2708V2.78943Z" fill="#FAFAFA"/>
<path d="M36.9391 9.82943H31.3391V7.17343C31.3391 6.7041 31.0724 6.46943 30.5391 6.46943H29.3871C28.8538 6.46943 28.5871 6.7041 28.5871 7.17343V18.9494C28.5871 19.4188 28.8538 19.6534 29.3871 19.6534H30.5391C31.0724 19.6534 31.3391 19.4188 31.3391 18.9494V15.5254H29.7391V11.9734H36.9391V19.3654C36.9391 22.0108 35.3711 23.3334 32.2351 23.3334H27.6911C24.5551 23.3334 22.9871 22.0108 22.9871 19.3654V6.75743C22.9871 4.1121 24.5551 2.78943 27.6911 2.78943H32.2351C35.3711 2.78943 36.9391 4.1121 36.9391 6.75743V9.82943Z" fill="#FAFAFA"/>
<path d="M37.8983 2.78943H43.4983V23.3334H37.8983V2.78943Z" fill="#FAFAFA"/>
<path d="M53.3826 10.5014V7.17343C53.3826 6.7041 53.1159 6.46943 52.5826 6.46943H50.2786V11.2054H52.5826C53.1159 11.2054 53.3826 10.9708 53.3826 10.5014ZM53.3826 18.9494V15.5894C53.3826 15.1201 53.1159 14.8854 52.5826 14.8854H50.2786V19.6534H52.5826C53.1159 19.6534 53.3826 19.4188 53.3826 18.9494ZM44.7746 2.78943H54.1826C57.3186 2.78943 58.8866 4.1121 58.8866 6.75743V9.38143C58.8866 11.2374 58.3746 12.4428 57.3506 12.9974C57.9479 13.2534 58.3533 13.6481 58.5666 14.1814C58.7799 14.6934 58.8866 15.3974 58.8866 16.2934V19.3654C58.8866 22.0108 57.3186 23.3334 54.1826 23.3334H44.7746V2.78943Z" fill="#FAFAFA"/>
<path d="M59.9946 2.78943H65.5946V23.3334H59.9946V2.78943Z" fill="#FAFAFA"/>
<path fill-rule="evenodd" clip-rule="evenodd" d="M78 5C78 7.76142 75.7614 10 73 10C70.2386 10 68 7.76142 68 5C68 2.23858 70.2386 0 73 0C75.7614 0 78 2.23858 78 5ZM76.9796 4.99996C76.9796 7.19783 75.1978 8.97955 73 8.97955C70.8021 8.97955 69.0204 7.19783 69.0204 4.99996C69.0204 2.80209 70.8021 1.02037 73 1.02037C75.1978 1.02037 76.9796 2.80209 76.9796 4.99996Z" fill="#FAFAFA"/>
<path d="M75.739 5.61227C75.4596 6.8676 74.3394 7.80613 72.9999 7.80613C71.4501 7.80613 70.1938 6.54979 70.1938 5.00001C70.1938 3.45023 71.4501 2.19388 72.9999 2.19388C74.3212 2.19388 75.4292 3.10708 75.7272 4.33676H74.3799C74.1327 3.82357 73.6077 3.46941 73 3.46941C72.1547 3.46941 71.4694 4.15469 71.4694 5.00002C71.4694 5.84536 72.1547 6.53063 73 6.53063C73.6277 6.53063 74.1671 6.15285 74.4033 5.61227H75.739Z" fill="#FAFAFA"/>
</svg>
