<svg width="20" height="20" viewBox="0 0 20 20" fill="none" xmlns="http://www.w3.org/2000/svg">
<path fill-rule="evenodd" clip-rule="evenodd" d="M5.93759 5.00018H12.5626C12.8834 6.57203 14.3424 7.6456 15.9385 7.48435C17.5347 7.32311 18.7495 5.97944 18.7495 4.37518C18.7495 2.77091 17.5347 1.42725 15.9385 1.266C14.3424 1.10476 12.8834 2.17833 12.5626 3.75018H5.93759C4.03912 3.75018 2.50009 5.2892 2.50009 7.18768C2.50009 9.08616 4.03912 10.6252 5.93759 10.6252H12.8126C14.0207 10.6252 15.0001 11.6046 15.0001 12.8127C15.0001 14.0208 14.0207 15.0002 12.8126 15.0002H7.43759C7.11674 13.4283 5.65778 12.3548 4.06164 12.516C2.4655 12.6772 1.25073 14.0209 1.25073 15.6252C1.25073 17.2294 2.4655 18.5731 4.06164 18.7344C5.65778 18.8956 7.11674 17.822 7.43759 16.2502H12.8126C14.7111 16.2502 16.2501 14.7112 16.2501 12.8127C16.2501 10.9142 14.7111 9.37518 12.8126 9.37518H5.93759C4.72947 9.37518 3.75009 8.3958 3.75009 7.18768C3.75009 5.97955 4.72947 5.00018 5.93759 5.00018ZM15.6251 2.50018C16.6606 2.50018 17.5001 3.33964 17.5001 4.37518C17.5001 5.41071 16.6606 6.25018 15.6251 6.25018C14.5896 6.25018 13.7501 5.41071 13.7501 4.37518C13.7501 3.33964 14.5896 2.50018 15.6251 2.50018V2.50018ZM4.37509 17.5002C3.33956 17.5002 2.50009 16.6607 2.50009 15.6252C2.50009 14.5896 3.33956 13.7502 4.37509 13.7502C5.41063 13.7502 6.25009 14.5896 6.25009 15.6252C6.25009 16.6607 5.41063 17.5002 4.37509 17.5002V17.5002Z" fill="#001614"/>
</svg>
