<svg width="20" height="20" viewBox="0 0 20 20" fill="none" xmlns="http://www.w3.org/2000/svg">
<path fill-rule="evenodd" clip-rule="evenodd" d="M7.56243 1.25004C6.36382 1.24596 5.19035 1.59365 4.18743 2.25004L8.18743 6.25004C8.45656 6.47966 8.62159 6.8082 8.64513 7.16119C8.66866 7.51418 8.5487 7.86172 8.31243 8.12504C8.04912 8.3613 7.70158 8.48126 7.34859 8.45773C6.9956 8.4342 6.66706 8.26916 6.43743 8.00004L2.31243 4.00004C1.59924 5.0495 1.22811 6.29386 1.24993 7.56254C1.26364 11.0431 4.08183 13.8613 7.56243 13.875C8.10967 13.878 8.65526 13.8151 9.18743 13.6875L13.3749 17.875C14.6003 19.1004 16.5871 19.1004 17.8124 17.875C19.0378 16.6497 19.0378 14.6629 17.8124 13.4375L13.6249 9.25004C13.7525 8.71787 13.8154 8.17227 13.8124 7.62504C13.846 5.94588 13.2024 4.32387 12.0266 3.12459C10.8509 1.92531 9.24192 1.2497 7.56243 1.25004ZM12.5624 7.56253C12.5615 8.00664 12.4984 8.44843 12.3749 8.87503L12.1874 9.56253L12.6874 10.0625L16.8749 14.25C17.2354 14.5913 17.4389 15.0662 17.4374 15.5625C17.4517 16.0614 17.246 16.5413 16.8749 16.875C16.5328 17.2342 16.0585 17.4375 15.5624 17.4375C15.0664 17.4375 14.592 17.2342 14.2499 16.875L10.0624 12.6875L9.56243 12.1875L8.87493 12.375C8.44833 12.4985 8.00654 12.5616 7.56243 12.5625C6.23435 12.5588 4.95865 12.0441 3.99993 11.125C3.0195 10.2025 2.47467 8.90852 2.49993 7.56253C2.5008 7.09788 2.56386 6.63544 2.68743 6.18753L5.43743 8.93753C5.90683 9.44832 6.56167 9.74924 7.25499 9.77274C7.94831 9.79625 8.62203 9.54036 9.12493 9.06253C9.60277 8.55962 9.85865 7.8859 9.83515 7.19258C9.81165 6.49927 9.51073 5.84442 8.99993 5.37503L6.24993 2.62503C6.65415 2.49719 7.076 2.43391 7.49993 2.43753C8.82801 2.44122 10.1037 2.95597 11.0624 3.87503C12.022 4.86295 12.5599 6.18528 12.5624 7.56253V7.56253Z" fill="#001614"/>
</svg>
